<svg id="Layer_1" data-name="Layer 1" xmlns="http://www.w3.org/2000/svg" xmlns:xlink="http://www.w3.org/1999/xlink" viewBox="0 0 222.22 40">
  <defs>
    <style>
      .cls-1, .cls-12 {
        fill: #7300ff;
      }

      .cls-1 {
        opacity: 0.25;
      }

      .cls-1, .cls-19, .cls-2, .cls-3 {
        isolation: isolate;
      }

      .cls-16, .cls-2 {
        fill: #d13d91;
      }

      .cls-2 {
        opacity: 0.5;
      }

      .cls-3 {
        fill: #ff5e5e;
        opacity: 0.75;
      }

      .cls-4 {
        fill: #ff8d4f;
      }

      .cls-5 {
        fill: #ffd65c;
      }

      .cls-10, .cls-11, .cls-6, .cls-7, .cls-8, .cls-9 {
        fill: none;
        stroke-linecap: round;
        stroke-linejoin: round;
        stroke-width: 2.68px;
      }

      .cls-6, .cls-7, .cls-8, .cls-9 {
        stroke-dasharray: 148.37 15.19 24.13 116.42 0 0;
      }

      .cls-6 {
        stroke: url(#linear-gradient);
      }

      .cls-7 {
        stroke: url(#linear-gradient-2);
      }

      .cls-8 {
        stroke: url(#linear-gradient-3);
      }

      .cls-9 {
        stroke: url(#linear-gradient-4);
      }

      .cls-10, .cls-11 {
        stroke-dasharray: 95.19 15.19 24.13 116.42 0 0;
      }

      .cls-10 {
        stroke: url(#linear-gradient-5);
      }

      .cls-11 {
        stroke: url(#linear-gradient-6);
      }

      .cls-13 {
        fill: url(#linear-gradient-7);
      }

      .cls-14 {
        fill: url(#linear-gradient-8);
      }

      .cls-15 {
        fill: url(#linear-gradient-9);
      }

      .cls-17 {
        fill: #9238ff;
      }

      .cls-18 {
        fill: #fff;
      }

      .cls-20 {
        fill: #f36;
        stroke: #f36;
        stroke-miterlimit: 10;
        stroke-width: 2px;
      }

      .cls-21 {
        fill: #fc6;
      }
    </style>
    <linearGradient id="linear-gradient" x1="-763.4" y1="456.84" x2="-753.62" y2="456.84" gradientTransform="translate(-6666.08 1469.2) rotate(-161.18) scale(7.74)" gradientUnits="userSpaceOnUse">
      <stop offset="0" stop-color="#4325ba"/>
      <stop offset="1" stop-color="#4325ba"/>
    </linearGradient>
    <linearGradient id="linear-gradient-2" x1="-762.95" y1="456.84" x2="-754.24" y2="456.84" gradientTransform="translate(-6666.08 1469.2) rotate(-161.18) scale(7.74)" gradientUnits="userSpaceOnUse">
      <stop offset="0" stop-color="#2358de"/>
      <stop offset="1" stop-color="#2358de"/>
    </linearGradient>
    <linearGradient id="linear-gradient-3" x1="-762.59" y1="456.84" x2="-754.72" y2="456.84" gradientTransform="translate(-6666.08 1469.2) rotate(-161.18) scale(7.74)" gradientUnits="userSpaceOnUse">
      <stop offset="0" stop-color="#d13d91"/>
      <stop offset="1" stop-color="#d13d91"/>
    </linearGradient>
    <linearGradient id="linear-gradient-4" x1="-762.01" y1="456.84" x2="-755.51" y2="456.84" gradientTransform="matrix(-7.32, -2.5, 2.5, -7.32, -6666.08, 1469.2)" gradientUnits="userSpaceOnUse">
      <stop offset="0" stop-color="#ff5e5e"/>
      <stop offset="1" stop-color="#ff5e5e"/>
    </linearGradient>
    <linearGradient id="linear-gradient-5" x1="-761.77" y1="456.84" x2="-755.83" y2="456.84" gradientTransform="translate(-6666.08 1469.2) rotate(-161.18) scale(7.74)" xlink:href="#linear-gradient-4"/>
    <linearGradient id="linear-gradient-6" x1="-761.45" y1="456.84" x2="-756.27" y2="456.84" gradientTransform="translate(-6666.08 1469.2) rotate(-161.18) scale(7.74)" gradientUnits="userSpaceOnUse">
      <stop offset="0" stop-color="#ffd65c"/>
      <stop offset="1" stop-color="#ffd65c"/>
    </linearGradient>
    <linearGradient id="linear-gradient-7" x1="-896.4" y1="241.08" x2="-896.25" y2="241.08" gradientTransform="matrix(7.74, 0.02, -0.02, 7.74, 6992.32, -1821.02)" xlink:href="#linear-gradient-2"/>
    <linearGradient id="linear-gradient-8" x1="-895.74" y1="237.99" x2="-895.58" y2="237.99" gradientTransform="matrix(7.74, 0.02, -0.02, 7.74, 6992.32, -1821.02)" xlink:href="#linear-gradient-2"/>
    <linearGradient id="linear-gradient-9" x1="-4205.32" y1="7370.84" x2="-4205.13" y2="7370.84" gradientTransform="matrix(5.27, 5.66, -5.66, 5.27, 63918.97, -15044.42)" xlink:href="#linear-gradient-2"/>
  </defs>
  <title>logo-wide-final-fuku</title>
  <g>
    <ellipse class="cls-1" cx="34.15" cy="19.16" rx="29.1" ry="13.1" transform="translate(-4.34 11.94) rotate(-18.67)"/>
    <ellipse class="cls-2" cx="34.15" cy="19.16" rx="21.4" ry="9.6" transform="translate(-4.34 11.94) rotate(-18.67)"/>
    <ellipse class="cls-3" cx="34.15" cy="19.16" rx="15.9" ry="7.1" transform="translate(-4.34 11.94) rotate(-18.67)"/>
    <ellipse class="cls-4" cx="34.15" cy="19.16" rx="13.6" ry="6.1" transform="translate(-4.34 11.94) rotate(-18.67)"/>
    <ellipse class="cls-5" cx="34.15" cy="19.16" rx="8.3" ry="3.7" transform="translate(-4.34 11.94) rotate(-18.67)"/>
    <g>
      <ellipse class="cls-6" cx="34.15" cy="19.16" rx="29.1" ry="13.1" transform="translate(-4.34 11.94) rotate(-18.67)"/>
      <ellipse class="cls-7" cx="34.15" cy="19.16" rx="24.8" ry="11.1" transform="translate(-4.34 11.94) rotate(-18.67)"/>
      <ellipse class="cls-8" cx="34.15" cy="19.16" rx="21.4" ry="9.6" transform="translate(-4.34 11.94) rotate(-18.67)"/>
      <ellipse class="cls-9" cx="34.15" cy="19.16" rx="15.9" ry="7.1" transform="translate(-4.34 11.94) rotate(-18.67)"/>
      <ellipse class="cls-10" cx="34.15" cy="19.16" rx="13.6" ry="6.1" transform="translate(-4.34 11.94) rotate(-18.67)"/>
      <ellipse class="cls-11" cx="34.15" cy="19.16" rx="10.5" ry="4.7" transform="translate(-4.34 11.94) rotate(-18.67)"/>
    </g>
  </g>
  <circle class="cls-12" cx="59.6" cy="4" r="0.6"/>
  <circle class="cls-13" cx="52.9" cy="25.9" r="0.6"/>
  <circle class="cls-14" cx="58.1" cy="2" r="0.6"/>
  <circle class="cls-15" cx="21.8" cy="36.8" r="0.7"/>
  <circle class="cls-12" cx="46.3" cy="31.1" r="0.6"/>
  <circle class="cls-12" cx="12.1" cy="12.6" r="0.7"/>
  <circle class="cls-12" cx="4" cy="25.1" r="0.7"/>
  <circle class="cls-12" cx="23.3" cy="32.5" r="0.7"/>
  <circle class="cls-12" cx="37.7" cy="2.1" r="0.6"/>
  <circle class="cls-12" cx="16.7" cy="9.2" r="0.6"/>
  <g>
    <circle class="cls-16" cx="49.4" cy="18.6" r="0.6"/>
    <circle class="cls-16" cx="14.9" cy="25.8" r="0.4"/>
    <circle class="cls-16" cx="46.2" cy="19.2" r="0.4"/>
    <circle class="cls-16" cx="17.7" cy="23.3" r="0.4"/>
    <circle class="cls-16" cx="26.7" cy="16.2" r="0.4"/>
    <circle class="cls-16" cx="42.5" cy="20.8" r="0.4"/>
    <circle class="cls-16" cx="52.5" cy="15.5" r="0.4"/>
    <circle class="cls-16" cx="46.6" cy="11.7" r="0.6"/>
    <circle class="cls-16" cx="28.9" cy="25.2" r="0.6"/>
    <circle class="cls-16" cx="20.2" cy="17.6" r="0.6"/>
    <circle class="cls-16" cx="51.2" cy="12.5" r="0.6"/>
  </g>
  <circle class="cls-17" cx="16.2" cy="30.4" r="0.6"/>
  <circle class="cls-17" cx="13.8" cy="22.8" r="0.4"/>
  <circle class="cls-17" cx="37.8" cy="11.5" r="0.4"/>
  <circle class="cls-17" cx="55.7" cy="13.2" r="0.4"/>
  <circle class="cls-17" cx="59.9" cy="12.2" r="0.6"/>
  <circle class="cls-17" cx="52.4" cy="8" r="0.6"/>
  <circle class="cls-17" cx="57.2" cy="8.7" r="0.6"/>
  <circle class="cls-17" cx="13" cy="26.5" r="0.6"/>
  <path class="cls-18" d="M38.1,17.9v.2c.1,1-1.4,2.3-3.5,3s-4,.6-4.5-.2c-.1-.1-.1-.1-.1-.2h0c-.3-1,1.2-2.4,3.5-3.2s4.3-.6,4.6.4Z"/>
  <g class="cls-19">
    <path class="cls-20" d="M82.6,32.83a1.27,1.27,0,0,0,1.24.6h1.57a.87.87,0,0,0,.9-.58,4.82,4.82,0,0,0,.23-1.74V21.46H84.41v-2.4h3.91V32.31a4.58,4.58,0,0,1-.6,2.36A2.13,2.13,0,0,1,86,35.79H82.88a1.92,1.92,0,0,1-1.1-.41A2.74,2.74,0,0,1,81,34.5a3.8,3.8,0,0,1-.41-1.16A6.38,6.38,0,0,1,80.5,32V7.31a6.64,6.64,0,0,1,.15-1.42,3.88,3.88,0,0,1,.44-1.2,2.64,2.64,0,0,1,.76-.83A1.92,1.92,0,0,1,83,3.53h2.84a2.41,2.41,0,0,1,1.81,1.18A4.18,4.18,0,0,1,88.32,7v7.38H86.54V8.21a5.88,5.88,0,0,0-.19-1.74.83.83,0,0,0-.87-.58H83.27c-.28,0-.52.21-.71.62a4.07,4.07,0,0,0-.28,1.66V31.11A3.76,3.76,0,0,0,82.6,32.83Z"/>
    <path class="cls-20" d="M98.23,25.11H94.64L93.43,35.79h-2L95.39,3.53h2.06l4,32.26H99.58Zm-3.3-2.53h3L96.42,10.1Z"/>
    <path class="cls-20" d="M104.66,3.53h1.81v29.9h6.08v2.36h-7.89Z"/>
    <path class="cls-20" d="M122.46,25.11h-3.59l-1.21,10.68h-2l3.91-32.26h2.06l4,32.26h-1.92Zm-3.3-2.53h3L120.65,10.1Z"/>
    <path class="cls-20" d="M128.85,35.79,131.31,19,128.82,3.53h1.92l2.06,12.74,2-12.74h2L134.22,19l2.56,16.77h-2l-2-13.43-2,13.43Z"/>
    <path class="cls-20" d="M142.85,20.35h-.28a3,3,0,0,1-1-.17,2.25,2.25,0,0,1-.85-.56,3.05,3.05,0,0,1-.62-1,3.42,3.42,0,0,1-.25-1.39V3.53h1.77v13c0,.94.35,1.42,1,1.42H145c.57,0,.85-.43.85-1.29V3.53h1.78V17.39a3,3,0,0,1-.27,1.33,2.87,2.87,0,0,1-.65.92,2.7,2.7,0,0,1-.86.54,2.52,2.52,0,0,1-.85.17h-.28V35.79h-1.85Z"/>
    <path class="cls-20" d="M161.93,16.7a3.47,3.47,0,0,0,.11,1c.07.26.31.38.74.38h3.09a1.35,1.35,0,0,1,.61.2,2.83,2.83,0,0,1,.69.56,3.51,3.51,0,0,1,.57.85,2.51,2.51,0,0,1,.23,1.05V32a5.45,5.45,0,0,1-.57,2.53,2.25,2.25,0,0,1-1.92,1.25H162.6a2.45,2.45,0,0,1-1.79-1.18,4.11,4.11,0,0,1-.69-2.3V24.94h1.77v6.22a4.86,4.86,0,0,0,.22,1.71.85.85,0,0,0,.88.56h2.21a.79.79,0,0,0,.78-.62,5.34,5.34,0,0,0,.21-1.65v-9.4a1.76,1.76,0,0,0-.23-1,1.09,1.09,0,0,0-.94-.33h-2.67a2.08,2.08,0,0,1-.74-.15,1.92,1.92,0,0,1-.71-.47,2.34,2.34,0,0,1-.53-.86,3.23,3.23,0,0,1-.22-1.26V7.31a5.57,5.57,0,0,1,.55-2.53,2.2,2.2,0,0,1,1.9-1.25h2.88a2.41,2.41,0,0,1,1.81,1.18A4.18,4.18,0,0,1,168,7v7.38h-1.78V8.21A5.88,5.88,0,0,0,166,6.47a.83.83,0,0,0-.87-.58h-2.21a.79.79,0,0,0-.8.62,5.78,5.78,0,0,0-.19,1.66Z"/>
    <path class="cls-20" d="M181,3.53l3,25.7,3.3-25.7h2l-4.27,32.26h-2.13l-2.7-23.08-2.91,23.08h-2.17L171.2,3.53h2l3,25.7,3.31-25.7Z"/>
    <path class="cls-20" d="M196,25.11h-3.59L191.2,35.79h-1.95l3.9-32.26h2.06l4.06,32.26h-1.92Zm-3.31-2.53h3l-1.5-12.48Z"/>
    <path class="cls-20" d="M202.43,3.53h4.22a1.75,1.75,0,0,1,1.23.67A6.31,6.31,0,0,1,209,6a15,15,0,0,1,.82,2.86,19.86,19.86,0,0,1,.32,3.68,23.37,23.37,0,0,1-.32,4.14,13.52,13.52,0,0,1-.84,2.9,4.88,4.88,0,0,1-1.14,1.71,1.81,1.81,0,0,1-1.22.56H204.2v13.9h-1.77Zm1.77,2.36V19.53h2a1.22,1.22,0,0,0,1-.53,4.22,4.22,0,0,0,.62-1.4,11.08,11.08,0,0,0,.34-1.91c.07-.7.13-1.38.18-2v-.52a2.71,2.71,0,0,1,0-.47c-.05-.77-.11-1.56-.18-2.36a12.45,12.45,0,0,0-.38-2.19,4.9,4.9,0,0,0-.72-1.61,1.5,1.5,0,0,0-1.25-.62Z"/>
  </g>
  <g class="cls-19">
    <path class="cls-21" d="M81.34,31.72a1.27,1.27,0,0,0,1.24.6h1.57a.88.88,0,0,0,.9-.58A5,5,0,0,0,85.28,30V20.35H83.15V18h3.91V31.21a4.54,4.54,0,0,1-.61,2.36,2.12,2.12,0,0,1-1.74,1.11H81.62a1.92,1.92,0,0,1-1.1-.41,2.77,2.77,0,0,1-.75-.88,4,4,0,0,1-.4-1.15,6.52,6.52,0,0,1-.13-1.33V6.2a7.35,7.35,0,0,1,.14-1.42,4.27,4.27,0,0,1,.45-1.2,2.53,2.53,0,0,1,.76-.83,1.91,1.91,0,0,1,1.14-.32h2.84A2.38,2.38,0,0,1,86.38,3.6a4.21,4.21,0,0,1,.68,2.3v7.38H85.28V7.1a5.88,5.88,0,0,0-.19-1.74.83.83,0,0,0-.87-.58H82c-.28,0-.52.21-.71.63A4,4,0,0,0,81,7.06V30A3.76,3.76,0,0,0,81.34,31.72Z"/>
    <path class="cls-21" d="M97,24H93.38L92.17,34.68h-2L94.13,2.43h2.06l4,32.25H98.32Zm-3.3-2.53h3L95.16,9Z"/>
    <path class="cls-21" d="M103.4,2.43h1.81V32.32h6.08v2.36H103.4Z"/>
    <path class="cls-21" d="M121.2,24h-3.59L116.4,34.68h-2l3.91-32.25h2.06l4,32.25h-1.92Zm-3.31-2.53h3L119.39,9Z"/>
    <path class="cls-21" d="M127.59,34.68,130,17.91,127.56,2.43h1.92l2.06,12.73,2-12.73h2L133,17.91l2.55,16.77h-2l-2-13.43-2,13.43Z"/>
    <path class="cls-21" d="M141.59,19.24h-.28a3,3,0,0,1-1-.17,2.18,2.18,0,0,1-.85-.56,3.25,3.25,0,0,1-.63-1,3.6,3.6,0,0,1-.24-1.39V2.43h1.77v13c0,1,.34,1.42,1,1.42h2.31c.57,0,.85-.43.85-1.29V2.43h1.78V16.28a3,3,0,0,1-.27,1.33,2.87,2.87,0,0,1-.65.92,2.7,2.7,0,0,1-.86.54,2.52,2.52,0,0,1-.85.17h-.28V34.68h-1.85Z"/>
    <path class="cls-21" d="M160.67,15.59a3.92,3.92,0,0,0,.1,1q.1.39.75.39h3.09a1.25,1.25,0,0,1,.6.19,2.69,2.69,0,0,1,.7.56,3.39,3.39,0,0,1,.56.85,2.39,2.39,0,0,1,.24,1.06V30.91a5.51,5.51,0,0,1-.57,2.53,2.26,2.26,0,0,1-1.92,1.24h-2.88a2.45,2.45,0,0,1-1.79-1.18,4.09,4.09,0,0,1-.7-2.29V23.83h1.78v6.22a5.16,5.16,0,0,0,.21,1.71.86.86,0,0,0,.89.56h2.2a.81.81,0,0,0,.79-.62,5.3,5.3,0,0,0,.21-1.65v-9.4a1.76,1.76,0,0,0-.23-1,1.1,1.1,0,0,0-.94-.32h-2.67a2.08,2.08,0,0,1-.74-.15,1.94,1.94,0,0,1-.71-.48,2.54,2.54,0,0,1-.54-.85,3.48,3.48,0,0,1-.21-1.27V6.2a5.6,5.6,0,0,1,.55-2.53,2.19,2.19,0,0,1,1.9-1.24h2.88A2.38,2.38,0,0,1,166,3.6a4.21,4.21,0,0,1,.68,2.3v7.38h-1.78V7.1a5.82,5.82,0,0,0-.2-1.74.83.83,0,0,0-.87-.58h-2.2a.79.79,0,0,0-.8.63,5.66,5.66,0,0,0-.19,1.65Z"/>
    <path class="cls-21" d="M179.71,2.43l3,25.69L186,2.43h2l-4.27,32.25h-2.13L179,11.6l-2.91,23.08h-2.17L169.94,2.43h2l3,25.69,3.31-25.69Z"/>
    <path class="cls-21" d="M194.74,24h-3.59l-1.21,10.68H188l3.9-32.25H194L198,34.68h-1.91Zm-3.31-2.53h3L192.92,9Z"/>
    <path class="cls-21" d="M201.17,2.43h4.22a1.73,1.73,0,0,1,1.23.66,6.31,6.31,0,0,1,1.12,1.84,15,15,0,0,1,.82,2.86,19.89,19.89,0,0,1,.32,3.69,23.33,23.33,0,0,1-.32,4.13,13.52,13.52,0,0,1-.84,2.9,5,5,0,0,1-1.14,1.72,1.84,1.84,0,0,1-1.22.55h-2.42v13.9h-1.77Zm1.77,2.35V18.42h2a1.2,1.2,0,0,0,1-.53,4.13,4.13,0,0,0,.62-1.4,11.14,11.14,0,0,0,.34-1.9q.11-1,.18-2V12a4.09,4.09,0,0,1,0-.47c0-.77-.1-1.56-.17-2.36A12.45,12.45,0,0,0,206.58,7a4.75,4.75,0,0,0-.72-1.6,1.48,1.48,0,0,0-1.25-.63Z"/>
  </g>
</svg>
